<svg width="126" height="47" viewBox="0 0 126 47" fill="none" xmlns="http://www.w3.org/2000/svg">
<g clip-path="url(#clip0_956_393)">
<path d="M51.7928 4.17768H53.0018C53.4561 4.17768 53.7951 4.07752 54.0185 3.8769C54.2419 3.67628 54.3536 3.39773 54.3536 3.04125C54.3536 2.68476 54.2419 2.39495 54.0185 2.19463C53.7951 1.99401 53.4561 1.89385 53.0018 1.89385H51.7928V4.17768ZM49.6168 7.95442V0.15587H53.1337C53.8371 0.15587 54.4434 0.270847 54.9525 0.501096C55.4616 0.731345 55.8555 1.06383 56.134 1.49825C56.4126 1.93267 56.5515 2.4471 56.5515 3.04125C56.5515 3.63539 56.4123 4.13678 56.134 4.56765C55.8558 4.99851 55.4616 5.3307 54.9525 5.5648C54.4434 5.7989 53.8371 5.91566 53.1337 5.91566H51.7928V7.95442H49.6165H49.6168ZM36.5326 8.11029C35.397 8.11029 34.5104 7.79469 33.873 7.16321C33.2356 6.53203 32.9168 5.63681 32.9168 4.47845V0.15587H35.093V4.41148C35.093 5.08 35.2231 5.55888 35.4833 5.84869C35.7435 6.1385 36.1005 6.28311 36.5548 6.28311C37.0091 6.28311 37.3644 6.1382 37.621 5.84869C37.8773 5.55917 38.0057 5.08 38.0057 4.41148V0.15587H40.1487V4.47845C40.1487 5.63711 39.8299 6.53203 39.1925 7.16321C38.555 7.7944 37.6684 8.11029 36.5329 8.11029H36.5326ZM19.0301 4.17768H20.2391C20.6934 4.17768 21.0324 4.07752 21.2558 3.8769C21.4793 3.67628 21.591 3.39773 21.591 3.04125C21.591 2.68476 21.4793 2.39495 21.2558 2.19463C21.0324 1.99401 20.6934 1.89385 20.2391 1.89385H19.0301V4.17768ZM21.6129 7.95442L20.2181 5.88217H19.0301V7.95442H16.8538V0.15587H20.3707C21.0742 0.15587 21.6805 0.270847 22.1896 0.501096C22.6987 0.731345 23.0925 1.06383 23.371 1.49825C23.6496 1.93267 23.7886 2.4471 23.7886 3.04125C23.7886 3.63539 23.6493 4.135 23.371 4.56202C23.1094 4.96325 22.7461 5.27588 22.2808 5.5002L23.9424 7.95442H21.6123H21.6129ZM4.24228 8.11029C3.63421 8.11029 3.06999 8.0119 2.54963 7.81514C2.02928 7.61838 1.58063 7.33805 1.2034 6.97415C0.826171 6.61026 0.531025 6.18117 0.318556 5.68748C0.106383 5.1935 0 4.64944 0 4.05529C0 3.46115 0.106383 2.91708 0.318852 2.4231C0.531322 1.92912 0.827949 1.50032 1.20903 1.13643C1.59011 0.772535 2.04261 0.492206 2.56623 0.295442C3.09014 0.0983819 3.66354 0 4.28643 0C5.01185 0 5.66022 0.122681 6.23184 0.367747C6.80347 0.612813 7.27582 0.965743 7.64949 1.42624L6.26474 2.69632C6.001 2.4068 5.71712 2.18929 5.41308 2.04468C5.10905 1.89978 4.77004 1.82747 4.39637 1.82747C4.06655 1.82747 3.76637 1.87933 3.49523 1.98334C3.22408 2.08736 2.99324 2.2376 2.8027 2.43466C2.61216 2.63142 2.4637 2.86552 2.35761 3.13637C2.25152 3.40751 2.19818 3.71392 2.19818 4.05559C2.19818 4.39726 2.25123 4.68322 2.35761 4.95792C2.46399 5.23261 2.61216 5.46849 2.8027 5.66526C2.99324 5.86202 3.2223 6.01434 3.4896 6.1219C3.75689 6.22947 4.05203 6.2834 4.37444 6.2834C4.69685 6.2834 5.01185 6.22947 5.31974 6.1219C5.39649 6.09494 5.47324 6.06353 5.55058 6.02708V3.88816H7.47406V7.11906C7.03431 7.4385 6.52521 7.68357 5.94648 7.85426C5.36774 8.02494 4.79968 8.11058 4.24287 8.11058L4.24228 8.11029ZM69.5809 6.30563C69.8814 6.29081 70.1579 6.23125 70.4107 6.12724C70.6634 6.02323 70.8833 5.87299 71.07 5.67593C71.2567 5.47916 71.4051 5.24506 71.5151 4.97392C71.625 4.70278 71.6798 4.39637 71.6798 4.0547C71.6724 3.71303 71.6158 3.40484 71.5094 3.13015C71.4031 2.85545 71.2567 2.62135 71.0697 2.42843C70.8827 2.23523 70.6649 2.08499 70.4157 1.97712C70.1665 1.86955 69.8882 1.81177 69.5803 1.80436C69.2947 1.81918 69.0235 1.87874 68.7669 1.98275C68.5106 2.08676 68.2889 2.23523 68.1019 2.42843C67.9149 2.62164 67.7703 2.85545 67.6678 3.13015C67.5653 3.40484 67.5102 3.71333 67.503 4.0547C67.5105 4.38896 67.5653 4.69537 67.6678 4.97392C67.7703 5.25247 67.917 5.48835 68.1076 5.68126C68.2981 5.87447 68.518 6.02471 68.7669 6.13257C69.0161 6.24014 69.2873 6.29793 69.5803 6.30533L69.5809 6.30563ZM69.5809 8.08806C68.98 8.09547 68.4178 8.00094 67.8939 7.80388C67.37 7.60712 66.9157 7.32471 66.5311 6.95726C66.1464 6.58952 65.8498 6.15895 65.6409 5.66496C65.432 5.17098 65.3277 4.63432 65.3277 4.055C65.3203 3.46826 65.4249 2.9316 65.6409 2.44503C65.8569 1.95845 66.1556 1.53144 66.5367 1.16399C66.9178 0.796242 67.3703 0.512357 67.8939 0.31174C68.4178 0.111124 68.9803 0.0109643 69.5809 0.0109643C70.2109 0.00355597 70.7825 0.101938 71.2955 0.30611C71.8084 0.510282 72.2571 0.794464 72.6417 1.15836C73.0264 1.52225 73.3251 1.94927 73.5375 2.4394C73.75 2.92953 73.8525 3.46796 73.8451 4.0547C73.8525 4.64143 73.75 5.18165 73.5375 5.67563C73.3251 6.16961 73.0264 6.59663 72.6417 6.95667C72.2571 7.31701 71.8081 7.59911 71.2955 7.80329C70.7828 8.00746 70.2112 8.10229 69.5809 8.08747V8.08806Z" fill="white"/>
<mask id="mask0_956_393" style="mask-type:luminance" maskUnits="userSpaceOnUse" x="0" y="0" width="74" height="9">
<path d="M51.7928 4.17768H53.0018C53.4561 4.17768 53.7951 4.07752 54.0185 3.8769C54.2419 3.67628 54.3536 3.39773 54.3536 3.04125C54.3536 2.68476 54.2419 2.39495 54.0185 2.19463C53.7951 1.99401 53.4561 1.89385 53.0018 1.89385H51.7928V4.17768ZM49.6168 7.95442V0.15587H53.1337C53.8371 0.15587 54.4434 0.270847 54.9525 0.501096C55.4616 0.731345 55.8555 1.06383 56.134 1.49825C56.4126 1.93267 56.5515 2.4471 56.5515 3.04125C56.5515 3.63539 56.4123 4.13678 56.134 4.56765C55.8558 4.99851 55.4616 5.3307 54.9525 5.5648C54.4434 5.7989 53.8371 5.91566 53.1337 5.91566H51.7928V7.95442H49.6165H49.6168ZM36.5326 8.11029C35.397 8.11029 34.5104 7.79469 33.873 7.16321C33.2356 6.53203 32.9168 5.63681 32.9168 4.47845V0.15587H35.093V4.41148C35.093 5.08 35.2231 5.55888 35.4833 5.84869C35.7435 6.1385 36.1005 6.28311 36.5548 6.28311C37.0091 6.28311 37.3644 6.1382 37.621 5.84869C37.8773 5.55917 38.0057 5.08 38.0057 4.41148V0.15587H40.1487V4.47845C40.1487 5.63711 39.8299 6.53203 39.1925 7.16321C38.555 7.7944 37.6684 8.11029 36.5329 8.11029H36.5326ZM19.0301 4.17768H20.2391C20.6934 4.17768 21.0324 4.07752 21.2558 3.8769C21.4793 3.67628 21.591 3.39773 21.591 3.04125C21.591 2.68476 21.4793 2.39495 21.2558 2.19463C21.0324 1.99401 20.6934 1.89385 20.2391 1.89385H19.0301V4.17768ZM21.6129 7.95442L20.2181 5.88217H19.0301V7.95442H16.8538V0.15587H20.3707C21.0742 0.15587 21.6805 0.270847 22.1896 0.501096C22.6987 0.731345 23.0925 1.06383 23.371 1.49825C23.6496 1.93267 23.7886 2.4471 23.7886 3.04125C23.7886 3.63539 23.6493 4.135 23.371 4.56202C23.1094 4.96325 22.7461 5.27588 22.2808 5.5002L23.9424 7.95442H21.6123H21.6129ZM4.24228 8.11029C3.63421 8.11029 3.06999 8.0119 2.54963 7.81514C2.02928 7.61838 1.58063 7.33805 1.2034 6.97415C0.826171 6.61026 0.531025 6.18117 0.318556 5.68748C0.106383 5.1935 0 4.64944 0 4.05529C0 3.46115 0.106383 2.91708 0.318852 2.4231C0.531322 1.92912 0.827949 1.50032 1.20903 1.13643C1.59011 0.772535 2.04261 0.492206 2.56623 0.295442C3.09014 0.0983819 3.66354 0 4.28643 0C5.01185 0 5.66022 0.122681 6.23184 0.367747C6.80347 0.612813 7.27582 0.965743 7.64949 1.42624L6.26474 2.69632C6.001 2.4068 5.71712 2.18929 5.41308 2.04468C5.10905 1.89978 4.77004 1.82747 4.39637 1.82747C4.06655 1.82747 3.76637 1.87933 3.49523 1.98334C3.22408 2.08736 2.99324 2.2376 2.8027 2.43466C2.61216 2.63142 2.4637 2.86552 2.35761 3.13637C2.25152 3.40751 2.19818 3.71392 2.19818 4.05559C2.19818 4.39726 2.25123 4.68322 2.35761 4.95792C2.46399 5.23261 2.61216 5.46849 2.8027 5.66526C2.99324 5.86202 3.2223 6.01434 3.4896 6.1219C3.75689 6.22947 4.05203 6.2834 4.37444 6.2834C4.69685 6.2834 5.01185 6.22947 5.31974 6.1219C5.39649 6.09494 5.47324 6.06353 5.55058 6.02708V3.88816H7.47406V7.11906C7.03431 7.4385 6.52521 7.68357 5.94648 7.85426C5.36774 8.02494 4.79968 8.11058 4.24287 8.11058L4.24228 8.11029ZM69.5809 6.30563C69.8814 6.29081 70.1579 6.23125 70.4107 6.12724C70.6634 6.02323 70.8833 5.87299 71.07 5.67593C71.2567 5.47916 71.4051 5.24506 71.5151 4.97392C71.625 4.70278 71.6798 4.39637 71.6798 4.0547C71.6724 3.71303 71.6158 3.40484 71.5094 3.13015C71.4031 2.85545 71.2567 2.62135 71.0697 2.42843C70.8827 2.23523 70.6649 2.08499 70.4157 1.97712C70.1665 1.86955 69.8882 1.81177 69.5803 1.80436C69.2947 1.81918 69.0235 1.87874 68.7669 1.98275C68.5106 2.08676 68.2889 2.23523 68.1019 2.42843C67.9149 2.62164 67.7703 2.85545 67.6678 3.13015C67.5653 3.40484 67.5102 3.71333 67.503 4.0547C67.5105 4.38896 67.5653 4.69537 67.6678 4.97392C67.7703 5.25247 67.917 5.48835 68.1076 5.68126C68.2981 5.87447 68.518 6.02471 68.7669 6.13257C69.0161 6.24014 69.2873 6.29793 69.5803 6.30533L69.5809 6.30563ZM69.5809 8.08806C68.98 8.09547 68.4178 8.00094 67.8939 7.80388C67.37 7.60712 66.9157 7.32471 66.5311 6.95726C66.1464 6.58952 65.8498 6.15895 65.6409 5.66496C65.432 5.17098 65.3277 4.63432 65.3277 4.055C65.3203 3.46826 65.4249 2.9316 65.6409 2.44503C65.8569 1.95845 66.1556 1.53144 66.5367 1.16399C66.9178 0.796242 67.3703 0.512357 67.8939 0.31174C68.4178 0.111124 68.9803 0.0109643 69.5809 0.0109643C70.2109 0.00355597 70.7825 0.101938 71.2955 0.30611C71.8084 0.510282 72.2571 0.794464 72.6417 1.15836C73.0264 1.52225 73.3251 1.94927 73.5375 2.4394C73.75 2.92953 73.8525 3.46796 73.8451 4.0547C73.8525 4.64143 73.75 5.18165 73.5375 5.67563C73.3251 6.16961 73.0264 6.59663 72.6417 6.95667C72.2571 7.31701 71.8081 7.59911 71.2955 7.80329C70.7828 8.00746 70.2112 8.10229 69.5809 8.08747V8.08806Z" fill="white"/>
</mask>
<g mask="url(#mask0_956_393)">
<path d="M101.754 -20.4091H-20.8394V18.1863H101.754V-20.4091Z" fill="white"/>
</g>
<path fill-rule="evenodd" clip-rule="evenodd" d="M100.382 20.9174H114.322C108.132 29.3581 101.942 37.7997 95.7532 46.2416H107.584L125.999 20.9174V11.2099C119.862 11.2099 113.73 11.2274 107.591 11.2458L100.382 20.9174H100.382ZM45.5502 24.8506L60.8969 24.8029L60.8477 32.1416L45.5138 32.1896L45.4815 38.6315L63.6057 38.5817L63.5565 46.2199H35.9269L35.9761 11.2733H62.9653L62.8669 18.8618L45.5799 18.9115L45.5502 24.8503V24.8506ZM0 11.2736H9.5546L23.2798 29.9374L23.2463 11.2736H32.8009V46.2202H23.2798L9.5546 27.5967V46.2202H0.049191L0 11.2736ZM66.1218 11.1732L78.0281 11.2736C79.6787 13.5198 81.329 15.7663 82.9783 18.0134L77.0523 26.0807C73.4086 21.1115 69.7652 16.1423 66.1216 11.1732H66.1218ZM82.9715 39.4879C81.3248 41.732 79.6772 43.9761 78.0278 46.2202L66.1216 46.3207C69.7611 41.3569 73.4006 36.388 77.0428 31.417L82.9715 39.4879Z" fill="white"/>
<path fill-rule="evenodd" clip-rule="evenodd" d="M91.8363 11.2736L103.724 11.1732C99.4345 17.0242 95.1448 22.8815 90.8504 28.742C93.1692 31.9039 95.4877 35.066 97.8062 38.2282L91.833 46.2416C90.8012 44.834 89.7694 43.4261 88.7375 42.0186L88.7361 42.0168C87.4666 40.285 86.1971 38.5533 84.9276 36.8218L84.9238 36.8268L78.9948 28.7554L91.8363 11.2736ZM70.3843 22.3834L75.0512 28.7302L75.045 28.7388L70.3843 35.077V22.3834Z" fill="white"/>
<path fill-rule="evenodd" clip-rule="evenodd" d="M91.8363 11.2736L103.724 11.1732C99.4345 17.0242 95.1448 22.8815 90.8504 28.742C93.1692 31.9039 95.4877 35.066 97.8062 38.2282L91.833 46.2416C90.8012 44.834 89.7694 43.4261 88.7375 42.0186L88.7361 42.0168C87.4666 40.285 86.1971 38.5533 84.9276 36.8218L84.9238 36.8268L78.9948 28.7554L91.8363 11.2736ZM70.3843 22.3834L75.0512 28.7302L75.045 28.7388L70.3843 35.077V22.3834Z" fill="white"/>
</g>
<defs>
<clipPath id="clip0_956_393">
<rect width="126" height="46.3462" fill="white"/>
</clipPath>
</defs>
</svg>
